<?xml version="1.0" encoding="UTF-8" standalone="no"?><svg xmlns="http://www.w3.org/2000/svg" xmlns:xlink="http://www.w3.org/1999/xlink" contentScriptType="application/ecmascript" contentStyleType="text/css" height="247px" preserveAspectRatio="none" style="width:620px;height:247px;" version="1.1" viewBox="0 0 620 247" width="620px" zoomAndPan="magnify"><defs><filter height="300%" id="f1grpfajvf3ptn" width="300%" x="-1" y="-1"><feGaussianBlur result="blurOut" stdDeviation="2.0"/><feColorMatrix in="blurOut" result="blurOut2" type="matrix" values="0 0 0 0 0 0 0 0 0 0 0 0 0 0 0 0 0 0 .4 0"/><feOffset dx="4.0" dy="4.0" in="blurOut2" result="blurOut3"/><feBlend in="SourceGraphic" in2="blurOut3" mode="normal"/></filter></defs><g><!--MD5=[d4fb516b02a02b19caef982c8c97d79b]
entity session1--><rect fill="#FEFECE" filter="url(#f1grpfajvf3ptn)" height="36.2969" style="stroke: #000000; stroke-width: 1.5;" width="74" x="131.5" y="8"/><text fill="#000000" font-family="sans-serif" font-size="14" lengthAdjust="spacingAndGlyphs" textLength="54" x="141.5" y="30.9951">session</text><!--MD5=[b1a75dd32f526ceef5f1ce491a7ae06f]
entity session2--><rect fill="#FEFECE" filter="url(#f1grpfajvf3ptn)" height="36.2969" style="stroke: #000000; stroke-width: 1.5;" width="74" x="453.5" y="8"/><text fill="#000000" font-family="sans-serif" font-size="14" lengthAdjust="spacingAndGlyphs" textLength="54" x="463.5" y="30.9951">session</text><!--MD5=[96fb34940bc45fb8b6a6797048529133]
entity window1--><rect fill="#FEFECE" filter="url(#f1grpfajvf3ptn)" height="36.2969" style="stroke: #000000; stroke-width: 1.5;" width="72" x="78.5" y="104"/><text fill="#000000" font-family="sans-serif" font-size="14" lengthAdjust="spacingAndGlyphs" textLength="52" x="88.5" y="126.9951">window</text><!--MD5=[db64c7eb816d763f037d3da2ab6001ab]
entity window2--><rect fill="#FEFECE" filter="url(#f1grpfajvf3ptn)" height="36.2969" style="stroke: #000000; stroke-width: 1.5;" width="72" x="185.5" y="104"/><text fill="#000000" font-family="sans-serif" font-size="14" lengthAdjust="spacingAndGlyphs" textLength="52" x="195.5" y="126.9951">window</text><!--MD5=[3fc60fcaf82369f7b447c26bbd1134b9]
entity window3--><rect fill="#FEFECE" filter="url(#f1grpfajvf3ptn)" height="36.2969" style="stroke: #000000; stroke-width: 1.5;" width="72" x="383.5" y="104"/><text fill="#000000" font-family="sans-serif" font-size="14" lengthAdjust="spacingAndGlyphs" textLength="52" x="393.5" y="126.9951">window</text><!--MD5=[049f0e359708d9649dbb7b32db9b4c41]
entity window4--><rect fill="#FEFECE" filter="url(#f1grpfajvf3ptn)" height="36.2969" style="stroke: #000000; stroke-width: 1.5;" width="72" x="526.5" y="104"/><text fill="#000000" font-family="sans-serif" font-size="14" lengthAdjust="spacingAndGlyphs" textLength="52" x="536.5" y="126.9951">window</text><!--MD5=[b96de35ef627b74605f9b72835398ec0]
entity pane1--><rect fill="#FEFECE" filter="url(#f1grpfajvf3ptn)" height="36.2969" style="stroke: #000000; stroke-width: 1.5;" width="55" x="6" y="200"/><text fill="#000000" font-family="sans-serif" font-size="14" lengthAdjust="spacingAndGlyphs" textLength="35" x="16" y="222.9951">pane</text><!--MD5=[c5ee822002abeb8a3891450527dbe869]
entity pane2--><rect fill="#FEFECE" filter="url(#f1grpfajvf3ptn)" height="36.2969" style="stroke: #000000; stroke-width: 1.5;" width="55" x="96" y="200"/><text fill="#000000" font-family="sans-serif" font-size="14" lengthAdjust="spacingAndGlyphs" textLength="35" x="106" y="222.9951">pane</text><!--MD5=[e757e01ee482c51ab36465e89dd47831]
entity pane3--><rect fill="#FEFECE" filter="url(#f1grpfajvf3ptn)" height="36.2969" style="stroke: #000000; stroke-width: 1.5;" width="55" x="194" y="200"/><text fill="#000000" font-family="sans-serif" font-size="14" lengthAdjust="spacingAndGlyphs" textLength="35" x="204" y="222.9951">pane</text><!--MD5=[145efd43194f09641bef1e18eddd55f2]
entity pane4--><rect fill="#FEFECE" filter="url(#f1grpfajvf3ptn)" height="36.2969" style="stroke: #000000; stroke-width: 1.5;" width="55" x="284" y="200"/><text fill="#000000" font-family="sans-serif" font-size="14" lengthAdjust="spacingAndGlyphs" textLength="35" x="294" y="222.9951">pane</text><!--MD5=[2712f99c9b4ae193577b6beffc374e69]
entity pane5--><rect fill="#FEFECE" filter="url(#f1grpfajvf3ptn)" height="36.2969" style="stroke: #000000; stroke-width: 1.5;" width="55" x="374" y="200"/><text fill="#000000" font-family="sans-serif" font-size="14" lengthAdjust="spacingAndGlyphs" textLength="35" x="384" y="222.9951">pane</text><!--MD5=[bef1c10edb23e7d5660c2f7135111bad]
entity pane6--><rect fill="#FEFECE" filter="url(#f1grpfajvf3ptn)" height="36.2969" style="stroke: #000000; stroke-width: 1.5;" width="55" x="464" y="200"/><text fill="#000000" font-family="sans-serif" font-size="14" lengthAdjust="spacingAndGlyphs" textLength="35" x="474" y="222.9951">pane</text><!--MD5=[1c01aaafcf691be08dab015a94ed58d9]
entity pane7--><rect fill="#FEFECE" filter="url(#f1grpfajvf3ptn)" height="36.2969" style="stroke: #000000; stroke-width: 1.5;" width="55" x="554" y="200"/><text fill="#000000" font-family="sans-serif" font-size="14" lengthAdjust="spacingAndGlyphs" textLength="35" x="564" y="222.9951">pane</text><!--MD5=[a6b50e9618017857bd9d8b61a7233ab4]
link session1 to window1--><path d="M158.6,44.24 C149.69,59.74 136.57,82.59 126.95,99.32 " fill="none" id="session1-&gt;window1" style="stroke: #A80036; stroke-width: 1.0;"/><polygon fill="#A80036" points="124.34,103.87,132.2823,98.046,126.8238,99.5305,125.3392,94.072,124.34,103.87" style="stroke: #A80036; stroke-width: 1.0;"/><!--MD5=[923884d75afdb74c0f24753c64b3cd07]
link session1 to window2--><path d="M178.22,44.24 C186.96,59.74 199.84,82.59 209.28,99.32 " fill="none" id="session1-&gt;window2" style="stroke: #A80036; stroke-width: 1.0;"/><polygon fill="#A80036" points="211.84,103.87,210.9033,94.0658,209.3839,99.5148,203.9349,97.9955,211.84,103.87" style="stroke: #A80036; stroke-width: 1.0;"/><!--MD5=[42ef5442d8c3d20a1e000b6df6f44438]
link session2 to window3--><path d="M477.48,44.24 C465.67,59.88 448.22,82.98 435.55,99.75 " fill="none" id="session2-&gt;window3" style="stroke: #A80036; stroke-width: 1.0;"/><polygon fill="#A80036" points="432.44,103.87,441.0591,99.1045,435.456,99.882,434.6784,94.2789,432.44,103.87" style="stroke: #A80036; stroke-width: 1.0;"/><!--MD5=[a20c3ceef9374f2f1a890d7575d2935e]
link session2 to window4--><path d="M503.71,44.24 C515.68,59.88 533.38,82.98 546.22,99.75 " fill="none" id="session2-&gt;window4" style="stroke: #A80036; stroke-width: 1.0;"/><polygon fill="#A80036" points="549.38,103.87,547.0814,94.2931,546.339,99.901,540.7311,99.1587,549.38,103.87" style="stroke: #A80036; stroke-width: 1.0;"/><!--MD5=[4831025350701976f219b36d2669e984]
link window1 to pane1--><path d="M99.64,140.24 C86.17,155.88 66.26,178.98 51.81,195.75 " fill="none" id="window1-&gt;pane1" style="stroke: #A80036; stroke-width: 1.0;"/><polygon fill="#A80036" points="48.26,199.87,57.162,195.6564,51.521,196.0798,51.0977,190.4388,48.26,199.87" style="stroke: #A80036; stroke-width: 1.0;"/><!--MD5=[bd515c849492d7c8e9f2d8e434b223d3]
link window1 to pane2--><path d="M116.15,140.24 C117.62,155.61 119.78,178.2 121.38,194.89 " fill="none" id="window1-&gt;pane2" style="stroke: #A80036; stroke-width: 1.0;"/><polygon fill="#A80036" points="121.86,199.87,124.9685,190.5246,121.3752,194.8936,117.0062,191.3003,121.86,199.87" style="stroke: #A80036; stroke-width: 1.0;"/><!--MD5=[6ac5aecfd0a9f6cfb50850b7490be81b]
link window2 to pane3--><path d="M221.5,140.24 C221.5,155.48 221.5,177.81 221.5,194.46 " fill="none" id="window2-&gt;pane3" style="stroke: #A80036; stroke-width: 1.0;"/><polygon fill="#A80036" points="221.5,199.87,225.5,190.87,221.5,194.87,217.5,190.87,221.5,199.87" style="stroke: #A80036; stroke-width: 1.0;"/><!--MD5=[f12fea5753b06b87e84658bb80af7d8f]
link window3 to pane4--><path d="M399.94,140.02 C381.71,155.89 354.48,179.59 335.05,196.5 " fill="none" id="window3-&gt;pane4" style="stroke: #A80036; stroke-width: 1.0;"/><polygon fill="#A80036" points="331.28,199.79,340.6935,196.894,335.05,196.5056,335.4384,190.8621,331.28,199.79" style="stroke: #A80036; stroke-width: 1.0;"/><!--MD5=[9777b8cf71274470752fbc0e79e03f12]
link window3 to pane5--><path d="M416.2,140.24 C413.26,155.61 408.93,178.2 405.73,194.89 " fill="none" id="window3-&gt;pane5" style="stroke: #A80036; stroke-width: 1.0;"/><polygon fill="#A80036" points="404.78,199.87,410.4042,191.7849,405.7221,194.9596,402.5475,190.2775,404.78,199.87" style="stroke: #A80036; stroke-width: 1.0;"/><!--MD5=[57aa626929e3530320c6ddbd583a27e0]
link window3 to pane6--><path d="M432.71,140.24 C444.68,155.88 462.38,178.98 475.22,195.75 " fill="none" id="window3-&gt;pane6" style="stroke: #A80036; stroke-width: 1.0;"/><polygon fill="#A80036" points="478.38,199.87,476.0814,190.2931,475.339,195.901,469.7311,195.1587,478.38,199.87" style="stroke: #A80036; stroke-width: 1.0;"/><!--MD5=[3e64ed7a4ec6c54ea3c5643aab8dd515]
link window4 to pane7--><path d="M565.98,140.24 C569.09,155.61 573.66,178.2 577.03,194.89 " fill="none" id="window4-&gt;pane7" style="stroke: #A80036; stroke-width: 1.0;"/><polygon fill="#A80036" points="578.04,199.87,580.1865,190.2579,577.0539,194.9682,572.3436,191.8356,578.04,199.87" style="stroke: #A80036; stroke-width: 1.0;"/><!--MD5=[64c568ce64b2ada031ffd99a77c77e06]
@startuml

rectangle "session" as session1
rectangle "session" as session2
rectangle "window" as window1
rectangle "window" as window2
rectangle "window" as window3
rectangle "window" as window4
rectangle "pane" as pane1
rectangle "pane" as pane2
rectangle "pane" as pane3
rectangle "pane" as pane4
rectangle "pane" as pane5
rectangle "pane" as pane6
rectangle "pane" as pane7


session1 -down-> window1
session1 -down-> window2
session2 -down-> window3
session2 -down-> window4
window1 -down-> pane1
window1 -down-> pane2
window2 -down-> pane3
window3 -down-> pane4
window3 -down-> pane5
window3 -down-> pane6
window4 -down-> pane7

@enduml

PlantUML version 1.2020.02(Sun Mar 01 19:22:07 KST 2020)
(GPL source distribution)
Java Runtime: OpenJDK Runtime Environment
JVM: OpenJDK 64-Bit Server VM
Java Version: 21.0.6+7-Ubuntu-124.04.1
Operating System: Linux
Default Encoding: UTF-8
Language: en
Country: null
--></g></svg>