<svg xmlns="http://www.w3.org/2000/svg" xmlns:xlink="http://www.w3.org/1999/xlink" contentStyleType="text/css" data-diagram-type="DESCRIPTION" height="624px" preserveAspectRatio="none" style="width:376px;height:624px;background:#FFFFFF;" version="1.1" viewBox="0 0 376 624" width="376px" zoomAndPan="magnify"><title>System Call Transition: User Mode to Kernel Mode</title><defs/><g><text fill="#000000" font-family="sans-serif" font-size="14" font-weight="bold" lengthAdjust="spacing" textLength="348.0107" x="10" y="24.9659">System Call Transition: User Mode to Kernel Mode</text><!--entity UA--><g class="entity" data-entity="UA" data-source-line="14" data-uid="ent0002" id="entity_UA"><path d="M127.6033,56.0679 C127.6033,46.0679 191.6081,46.0679 191.6081,46.0679 C191.6081,46.0679 255.6129,46.0679 255.6129,56.0679 L255.6129,103.2038 C255.6129,113.2038 191.6081,113.2038 191.6081,113.2038 C191.6081,113.2038 127.6033,113.2038 127.6033,103.2038 L127.6033,56.0679" fill="#F1F1F1" style="stroke:#181818;stroke-width:0.5;"/><path d="M127.6033,56.0679 C127.6033,66.0679 191.6081,66.0679 191.6081,66.0679 C191.6081,66.0679 255.6129,66.0679 255.6129,56.0679" fill="none" style="stroke:#181818;stroke-width:0.5;"/><text fill="#000000" font-family="sans-serif" font-size="14" font-style="italic" lengthAdjust="spacing" textLength="41.4398" x="170.8882" y="85.0339">&#171;User&#187;</text><text fill="#000000" font-family="sans-serif" font-size="14" lengthAdjust="spacing" textLength="108.0096" x="137.6033" y="104.1018">User Application</text></g><!--entity API--><g class="entity" data-entity="API" data-source-line="15" data-uid="ent0003" id="entity_API"><rect fill="#E0F7FA" height="69.0323" rx="2.5" ry="2.5" style="stroke:#000000;stroke-width:0.5;" width="117.6447" x="132.7933" y="173.1979"/><text fill="#000000" font-family="sans-serif" font-size="12" font-style="italic" lengthAdjust="spacing" textLength="68.4245" x="157.4034" y="196.026">&#171;User Mode&#187;</text><text fill="#000000" font-family="sans-serif" font-size="12" lengthAdjust="spacing" textLength="84.8526" x="149.1893" y="212.3701">User-mode API</text><text fill="#000000" font-family="sans-serif" font-size="12" lengthAdjust="spacing" textLength="97.6447" x="142.7933" y="228.7142">(e.g., CreateFile())</text></g><!--entity SCIF--><g class="entity" data-entity="SCIF" data-source-line="16" data-uid="ent0004" id="entity_SCIF"><path d="M116.973,310.7378 C120.6897,304.5058 125.1374,303.212 130.0856,309.4419 C133.3312,303.8613 139.0277,305.0926 141.7874,309.9848 C145.2514,302.912 150.5946,302.1681 155.3262,308.7255 C158.5021,303.367 163.2062,301.8763 167.4092,307.6062 C170.1047,301.8557 175.0331,300.3297 179.0241,306.3251 C183.0917,299.6599 189.3406,299.6568 193.6339,306.073 C196.9687,300.1941 201.7876,300.0298 205.6204,305.5492 C210.0078,300.8851 215.3302,301.0725 217.5269,307.8324 C222.1269,300.3678 227.2866,301.4905 231.614,308.1051 C235.4667,303.8312 239.4166,302.7221 242.5985,308.8157 C247.5481,302.8895 252.2336,303.0332 256.6049,309.4709 C261.9968,303.0756 266.447,304.4218 269.8832,311.4111 C276.2538,315.4677 276.0247,319.3426 270.0043,323.523 C278.226,328.048 278.1876,332.5827 270.9108,338.0732 C276.5729,342.151 277.0858,347.5252 270.0401,350.7289 C276.4815,355.2977 275.0631,359.06 269.4612,363.0635 C265.663,369.2908 260.3055,370.0521 255.8355,363.7969 C252.7836,369.3581 246.6733,369.5825 242.9996,364.5504 C239.3857,371.5646 234.4088,370.9217 229.9985,365.3747 C227.0502,371.3309 220.9763,372.0495 217.2288,366.2423 C214.2721,371.7104 209.6998,371.3305 206.0057,367.0952 C203.046,374.2753 196.7992,373.7486 192.7196,368.2706 C189.0796,374.584 184.9368,374.9254 180.7839,368.7612 C175.5207,373.985 169.5351,374.0354 166.6344,366.2012 C163.2874,373.3122 157.0517,372.8982 153.6193,366.2821 C150.1714,371.3229 145.3147,370.0228 142.6951,365.3504 C138.0588,370.1477 133.4934,370.1496 129.8251,364.192 C125.2465,370.7523 121.3511,368.9229 117.2864,363.6476 C110.1715,361.5361 108.7591,356.0665 114.0688,350.8349 C107.5792,349.0483 104.6348,343.0142 110.8271,338.0196 C104.7324,332.7482 105.5499,327.2095 113.5136,324.7938 C108.0549,319.6464 109.5257,312.7088 116.973,310.7378" fill="#F1F1F1" style="stroke:#181818;stroke-width:0.5;"/><text fill="#000000" font-family="sans-serif" font-size="14" font-style="italic" lengthAdjust="spacing" textLength="68.9357" x="157.1422" y="332.1939">&#171;Interface&#187;</text><text fill="#000000" font-family="sans-serif" font-size="14" lengthAdjust="spacing" textLength="138.1935" x="122.5133" y="351.2618">System Call Interface</text></g><!--entity FSD--><g class="entity" data-entity="FSD" data-source-line="17" data-uid="ent0005" id="entity_FSD"><rect fill="#FFF3E0" height="69.0323" rx="2.5" ry="2.5" style="stroke:#000000;stroke-width:0.5;" width="120.8367" x="131.1933" y="430.3679"/><text fill="#000000" font-family="sans-serif" font-size="12" font-style="italic" lengthAdjust="spacing" textLength="77.8925" x="152.6654" y="453.196">&#171;Kernel Mode&#187;</text><text fill="#000000" font-family="sans-serif" font-size="12" lengthAdjust="spacing" textLength="100.8367" x="141.1933" y="469.5401">File System Driver</text><text fill="#000000" font-family="sans-serif" font-size="12" lengthAdjust="spacing" textLength="76.5725" x="153.3254" y="485.8842">(e.g., ntfs.sys)</text></g><!--entity HW--><g class="entity" data-entity="HW" data-source-line="18" data-uid="ent0006" id="entity_HW"><path d="M128.7833,569.3979 C128.7833,559.3979 191.6121,559.3979 191.6121,559.3979 C191.6121,559.3979 254.4409,559.3979 254.4409,569.3979 L254.4409,597.4658 C254.4409,607.4658 191.6121,607.4658 191.6121,607.4658 C191.6121,607.4658 128.7833,607.4658 128.7833,597.4658 L128.7833,569.3979" fill="#F1F1F1" style="stroke:#181818;stroke-width:0.5;"/><path d="M128.7833,569.3979 C128.7833,579.3979 191.6121,579.3979 191.6121,579.3979 C191.6121,579.3979 254.4409,579.3979 254.4409,569.3979" fill="none" style="stroke:#181818;stroke-width:0.5;"/><text fill="#000000" font-family="sans-serif" font-size="14" lengthAdjust="spacing" textLength="105.6576" x="138.7833" y="598.3639">Hardware / Disk</text></g><!--link UA to API--><g class="link" data-entity-1="UA" data-entity-2="API" data-source-line="20" data-uid="lnk7" id="link_UA_API"><path d="M172.0033,113.6179 C172.0033,131.9979 172.0033,148.6479 172.0033,167.1179" fill="none" id="UA-to-API" style="stroke:#181818;stroke-width:1;"/><polygon fill="#181818" points="172.0033,173.1179,176.0033,164.1179,172.0033,168.1179,168.0033,164.1179,172.0033,173.1179" style="stroke:#181818;stroke-width:1;"/><text fill="#000000" font-family="sans-serif" font-size="13" lengthAdjust="spacing" textLength="52.403" x="119.0033" y="139.2649">Calls API</text></g><!--reverse link UA to API--><g class="link" data-entity-1="UA" data-entity-2="API" data-source-line="26" data-uid="lnk16" id="link_UA_API"><path d="M211.2133,119.6179 C211.2133,137.9979 211.2133,154.6479 211.2133,173.1179" fill="none" id="UA-backto-API" style="stroke:#181818;stroke-width:1;"/><polygon fill="#181818" points="211.2133,113.6179,207.2133,122.6179,211.2133,118.6179,215.2133,122.6179,211.2133,113.6179" style="stroke:#181818;stroke-width:1;"/><text fill="#000000" font-family="sans-serif" font-size="13" lengthAdjust="spacing" textLength="47.7751" x="212.2133" y="158.2649">Returns</text><text fill="#000000" font-family="sans-serif" font-size="13" lengthAdjust="spacing" textLength="37.726" x="217.2378" y="175.9709">Result</text></g><!--link API to SCIF--><g class="link" data-entity-1="API" data-entity-2="SCIF" data-source-line="21" data-uid="lnk8" id="link_API_SCIF"><path d="M172.0033,242.5079 C172.0033,260.9579 172.0033,277.5379 172.0033,295.9179" fill="none" id="API-to-SCIF" style="stroke:#181818;stroke-width:1;"/><polygon fill="#181818" points="172.0033,301.9179,176.0033,292.9179,172.0033,296.9179,168.0033,292.9179,172.0033,301.9179" style="stroke:#181818;stroke-width:1;"/><text fill="#000000" font-family="sans-serif" font-size="13" lengthAdjust="spacing" textLength="38.454" x="117.6618" y="250.1149">Issues</text><text fill="#000000" font-family="sans-serif" font-size="13" lengthAdjust="spacing" textLength="69.7711" x="102.0033" y="267.8209">System Call</text></g><!--reverse link API to SCIF--><g class="link" data-entity-1="API" data-entity-2="SCIF" data-source-line="25" data-uid="lnk14" id="link_API_SCIF"><path d="M211.2133,248.5079 C211.2133,266.9579 211.2133,283.5379 211.2133,301.9179" fill="none" id="API-backto-SCIF" style="stroke:#181818;stroke-width:1;"/><polygon fill="#181818" points="211.2133,242.5079,207.2133,251.5079,211.2133,247.5079,215.2133,251.5079,211.2133,242.5079" style="stroke:#181818;stroke-width:1;"/><text fill="#000000" font-family="sans-serif" font-size="13" lengthAdjust="spacing" textLength="63.7131" x="213.7538" y="250.1149">Returns to</text><text fill="#000000" font-family="sans-serif" font-size="13" lengthAdjust="spacing" textLength="66.7941" x="212.2133" y="267.8209">User Mode</text></g><!--link SCIF to FSD--><g class="link" data-entity-1="SCIF" data-entity-2="FSD" data-source-line="22" data-uid="lnk9" id="link_SCIF_FSD"><path d="M171.4733,370.7579 C171.4733,389.0579 171.4733,405.4979 171.4733,423.8879" fill="none" id="SCIF-to-FSD" style="stroke:#181818;stroke-width:1;"/><polygon fill="#181818" points="171.4733,429.8879,175.4733,420.8879,171.4733,424.8879,167.4733,420.8879,171.4733,429.8879" style="stroke:#181818;stroke-width:1;"/><text fill="#000000" font-family="sans-serif" font-size="13" lengthAdjust="spacing" textLength="49.868" x="121.4733" y="415.2149">Handles</text><text fill="#000000" font-family="sans-serif" font-size="13" lengthAdjust="spacing" textLength="49.6991" x="121.5578" y="432.9209">Request</text></g><!--reverse link SCIF to FSD--><g class="link" data-entity-1="SCIF" data-entity-2="FSD" data-source-line="24" data-uid="lnk12" id="link_SCIF_FSD"><path d="M211.7533,376.7579 C211.7533,395.0579 211.7533,411.4979 211.7533,429.8879" fill="none" id="SCIF-backto-FSD" style="stroke:#181818;stroke-width:1;"/><polygon fill="#181818" points="211.7533,370.7579,207.7533,379.7579,211.7533,375.7579,215.7533,379.7579,211.7533,370.7579" style="stroke:#181818;stroke-width:1;"/><text fill="#000000" font-family="sans-serif" font-size="13" lengthAdjust="spacing" textLength="47.7751" x="212.7533" y="415.2149">Returns</text><text fill="#000000" font-family="sans-serif" font-size="13" lengthAdjust="spacing" textLength="37.726" x="217.7778" y="432.9209">Result</text></g><!--link FSD to HW--><g class="link" data-entity-1="FSD" data-entity-2="HW" data-source-line="23" data-uid="lnk10" id="link_FSD_HW"><path d="M191.6133,499.8079 C191.6133,518.9379 191.6133,536.1479 191.6133,553.2679" fill="none" id="FSD-to-HW" style="stroke:#181818;stroke-width:1;"/><polygon fill="#181818" points="191.6133,559.2679,195.6133,550.2679,191.6133,554.2679,187.6133,550.2679,191.6133,559.2679" style="stroke:#181818;stroke-width:1;"/><text fill="#000000" font-family="sans-serif" font-size="13" lengthAdjust="spacing" textLength="80.8341" x="110.6133" y="507.4349">Reads/Writes</text><text fill="#000000" font-family="sans-serif" font-size="13" lengthAdjust="spacing" textLength="28.769" x="136.6458" y="525.1409">Data</text></g><!--SRC=[RP9DQnin443l-XM3UqcWTjA6qjQ4XQrjOLCAmKxmnPV9QkmAoz9sf4tgXlptIjhOsNnS5hJpPkRDI447Gx3O-q0x6A4nSCrelGxQsI7SU6BuvHH1SF2Js9B9H-6tsjR8k0D5QsnCkAQ_eJHwOtTa0rJnGzoXZBOKzZM1u_3RTG9CLK2xYGuF0k07LjiDkyQgaJEEBo-F0aK17oRdygiityCwQWcKKbvCpjy3PybhZLLRxvlyClcUCCUAE2DmQs9E_2UT3GlzZ-3JP_4eXCA0j-W9Ubcfh6kZAqnRwW5wk2cXbIqAyJnIPlkxjB_oQhQo9pJO33x2Y0a3IMtevFGqfySel1XMLCOr2dhTYpcwvvJ5Q2RXnK3TngduuLR7hE-8ZzrjMFk1t_ksiroCuTN-EhDEaTKzCi4PZBNVvepfKeWuRb-vUzililem2-OnH3eVOjbn23Fl6_8hsnb6vD21In93cA9L9d5p-XFv8DBl0p9THc9EgFpPadL8s3XgjanJFpURKsZOvYe-likdHfbeLP-0-A9NzhZnLZjJSRQtLSH_]--></g></svg>